<?xml version="1.0" encoding="UTF-8" standalone="no"?>
<svg
   xmlns:dc="http://purl.org/dc/elements/1.1/"
   xmlns:cc="http://creativecommons.org/ns#"
   xmlns:rdf="http://www.w3.org/1999/02/22-rdf-syntax-ns#"
   xmlns:svg="http://www.w3.org/2000/svg"
   xmlns="http://www.w3.org/2000/svg"
   xmlns:xlink="http://www.w3.org/1999/xlink"
   xmlns:sodipodi="http://sodipodi.sourceforge.net/DTD/sodipodi-0.dtd"
   xmlns:inkscape="http://www.inkscape.org/namespaces/inkscape"
   version="1.1"
   viewBox="0 0 129 129"
   enable-background="new 0 0 129 129"
   id="svg6"
   sodipodi:docname="cloud.svg"
   inkscape:version="0.92.2 2405546, 2018-03-11">
  <metadata
     id="metadata12">
    <rdf:RDF>
      <cc:Work
         rdf:about="">
        <dc:format>image/svg+xml</dc:format>
        <dc:type
           rdf:resource="http://purl.org/dc/dcmitype/StillImage" />
      </cc:Work>
    </rdf:RDF>
  </metadata>
  <defs
     id="defs10">
    <linearGradient
       inkscape:collect="always"
       id="linearGradient826">
      <stop
         style="stop-color:#d09d17;stop-opacity:1;"
         offset="0"
         id="stop822" />
      <stop
         style="stop-color:#ffda79;stop-opacity:1"
         offset="1"
         id="stop824" />
    </linearGradient>
    <linearGradient
       inkscape:collect="always"
       xlink:href="#linearGradient826"
       id="linearGradient828"
       x1="7.6525426"
       y1="25.144068"
       x2="120.80085"
       y2="107.68221"
       gradientUnits="userSpaceOnUse" />
  </defs>
  <sodipodi:namedview
     pagecolor="#ffffff"
     bordercolor="#666666"
     borderopacity="1"
     objecttolerance="10"
     gridtolerance="10"
     guidetolerance="10"
     inkscape:pageopacity="0"
     inkscape:pageshadow="2"
     inkscape:window-width="1680"
     inkscape:window-height="979"
     id="namedview8"
     showgrid="false"
     inkscape:zoom="1.8294574"
     inkscape:cx="-23.777542"
     inkscape:cy="64.5"
     inkscape:window-x="0"
     inkscape:window-y="29"
     inkscape:window-maximized="1"
     inkscape:current-layer="g4" />
  <g
     id="g4">
    <path
       d="m81.8,23.6c-19.8,0-36.3,13.9-40,32.8-3.4-1.4-7.2-2.1-11-1.9-13.5,0.6-24.2,12.1-24.2,26.2-1.77636e-15,13.6 11.1,24.7 24.7,24.7h52.4c21.4,0 38.9-17.4 38.9-38.9 0-0.1 0-0.2 0-0.3 0-0.6 0.1-1.1 0.1-1.7 1.42109e-14-22.6-18.4-40.9-40.9-40.9zm32.6,42v0.7c0,0.3 0,0.5 0,0.8-0.3,16.7-14,30.1-30.7,30.1h-52.4c-9.1,0-16.5-7.4-16.5-16.5 0-9.5 7.4-17.6 16.4-18 0.3,0 0.6,0 0.8,0 3.9,0 7.5,1.3 10.6,3.6 1.2,0.9 2.8,1.1 4.2,0.5 1.4-0.6 2.3-2 2.4-3.5 0.7-17.6 15-31.4 32.6-31.4 18,0 32.7,14.7 32.7,32.7-1.42109e-14,0.3-1.42109e-14,0.6-0.1,1z"
       id="path2"
       style="fill:url(#linearGradient828);fill-opacity:1" />
  </g>
</svg>
