<?xml version="1.0" encoding="UTF-8" standalone="no"?>
<svg
   xmlns:dc="http://purl.org/dc/elements/1.1/"
   xmlns:cc="http://creativecommons.org/ns#"
   xmlns:rdf="http://www.w3.org/1999/02/22-rdf-syntax-ns#"
   xmlns:svg="http://www.w3.org/2000/svg"
   xmlns="http://www.w3.org/2000/svg"
   xmlns:xlink="http://www.w3.org/1999/xlink"
   xmlns:sodipodi="http://sodipodi.sourceforge.net/DTD/sodipodi-0.dtd"
   xmlns:inkscape="http://www.inkscape.org/namespaces/inkscape"
   version="1.1"
   viewBox="0 0 129 129"
   enable-background="new 0 0 129 129"
   id="svg6"
   sodipodi:docname="favorite.svg"
   inkscape:version="0.92.2 2405546, 2018-03-11">
  <metadata
     id="metadata12">
    <rdf:RDF>
      <cc:Work
         rdf:about="">
        <dc:format>image/svg+xml</dc:format>
        <dc:type
           rdf:resource="http://purl.org/dc/dcmitype/StillImage" />
      </cc:Work>
    </rdf:RDF>
  </metadata>
  <defs
     id="defs10">
    <linearGradient
       inkscape:collect="always"
       id="linearGradient858">
      <stop
         style="stop-color:#d09d17;stop-opacity:1;"
         offset="0"
         id="stop854" />
      <stop
         style="stop-color:#ffda79;stop-opacity:1"
         offset="1"
         id="stop856" />
    </linearGradient>
    <linearGradient
       inkscape:collect="always"
       xlink:href="#linearGradient858"
       id="linearGradient860"
       x1="6.012712"
       y1="6.5593219"
       x2="121.34746"
       y2="120.25423"
       gradientUnits="userSpaceOnUse" />
  </defs>
  <sodipodi:namedview
     pagecolor="#ffffff"
     bordercolor="#666666"
     borderopacity="1"
     objecttolerance="10"
     gridtolerance="10"
     guidetolerance="10"
     inkscape:pageopacity="0"
     inkscape:pageshadow="2"
     inkscape:window-width="1680"
     inkscape:window-height="979"
     id="namedview8"
     showgrid="false"
     inkscape:zoom="1.8294574"
     inkscape:cx="-23.777542"
     inkscape:cy="64.5"
     inkscape:window-x="0"
     inkscape:window-y="29"
     inkscape:window-maximized="1"
     inkscape:current-layer="svg6" />
  <g
     id="g4"
     style="stroke:none;stroke-opacity:1;fill:url(#linearGradient860);fill-opacity:1">
    <path
       d="m122.7,56c-0.3-1.4-1.4-2.5-2.7-3l-33.7-11.3-18-33.1c-0.7-1.4-2.2-2.2-3.7-2.2-1.5,0-3,0.8-3.7,2.2l-17.9,33-33.8,10.2c-1.4,0.4-2.5,1.5-2.8,2.9-0.4,1.4 0,2.9 1,4l22.2,24.3-9.2,34.3c-0.4,1.5 0.1,3.2 1.3,4.2 1.2,1.1 2.9,1.4 4.3,0.8l38.6-15.4 38.6,15.4c0.5,0.2 1,0.3 1.6,0.3 1,0 2-0.4 2.8-1.1 1.2-1.1 1.7-2.7 1.3-4.2l-9.2-34.3 22-23.1c0.9-1.1 1.3-2.5 1-3.9zm-30.7,22.9c-1,1.1-1.4,2.6-1,4l7.7,28.4-32.5-12.8c-0.5-0.2-1-0.3-1.6-0.3-0.5,0-1.1,0.1-1.6,0.3l-32.4,12.9 7.7-28.4c0.4-1.4 0-2.9-1-3.9l-19.3-21.2 29.1-8.7c1.1-0.3 2-1 2.5-2l15-27.7 15,27.7c0.5,0.9 1.3,1.6 2.4,2l29,9.7-19,20z"
       id="path2"
       style="stroke:none;stroke-opacity:1;fill:url(#linearGradient860);fill-opacity:1" />
  </g>
</svg>
