<?xml version="1.0" encoding="UTF-8" standalone="no"?>
<svg
   xmlns:dc="http://purl.org/dc/elements/1.1/"
   xmlns:cc="http://creativecommons.org/ns#"
   xmlns:rdf="http://www.w3.org/1999/02/22-rdf-syntax-ns#"
   xmlns:svg="http://www.w3.org/2000/svg"
   xmlns="http://www.w3.org/2000/svg"
   xmlns:xlink="http://www.w3.org/1999/xlink"
   xmlns:sodipodi="http://sodipodi.sourceforge.net/DTD/sodipodi-0.dtd"
   xmlns:inkscape="http://www.inkscape.org/namespaces/inkscape"
   version="1.1"
   viewBox="0 0 129 129"
   enable-background="new 0 0 129 129"
   id="svg6"
   sodipodi:docname="lightning.svg"
   inkscape:version="0.92.2 2405546, 2018-03-11">
  <metadata
     id="metadata12">
    <rdf:RDF>
      <cc:Work
         rdf:about="">
        <dc:format>image/svg+xml</dc:format>
        <dc:type
           rdf:resource="http://purl.org/dc/dcmitype/StillImage" />
      </cc:Work>
    </rdf:RDF>
  </metadata>
  <defs
     id="defs10">
    <linearGradient
       inkscape:collect="always"
       id="linearGradient826">
      <stop
         style="stop-color:#d09d17;stop-opacity:1;"
         offset="0"
         id="stop822" />
      <stop
         style="stop-color:#ffda79;stop-opacity:1"
         offset="1"
         id="stop824" />
    </linearGradient>
    <linearGradient
       inkscape:collect="always"
       xlink:href="#linearGradient826"
       id="linearGradient828"
       x1="29.516949"
       y1="7.6525426"
       x2="103.30932"
       y2="121.34746"
       gradientUnits="userSpaceOnUse" />
  </defs>
  <sodipodi:namedview
     pagecolor="#ffffff"
     bordercolor="#666666"
     borderopacity="1"
     objecttolerance="10"
     gridtolerance="10"
     guidetolerance="10"
     inkscape:pageopacity="0"
     inkscape:pageshadow="2"
     inkscape:window-width="1680"
     inkscape:window-height="979"
     id="namedview8"
     showgrid="false"
     inkscape:zoom="1.8294574"
     inkscape:cx="-23.777542"
     inkscape:cy="64.5"
     inkscape:window-x="0"
     inkscape:window-y="29"
     inkscape:window-maximized="1"
     inkscape:current-layer="svg6" />
  <g
     id="g4"
     style="fill:url(#linearGradient828);fill-opacity:1">
    <path
       d="m57.4,122.2c0.5,0.2 1,0.3 1.5,0.3 1.3,0 2.6-0.6 3.4-1.8l42.9-62c0.9-1.2 1-2.9 0.3-4.2-0.7-1.3-2.1-2.2-3.6-2.2l-26.6-.2 7.7-40.8c0.4-1.8-0.6-3.7-2.3-4.5-1.7-0.8-3.7-0.3-4.9,1.2l-45.5,57.3c-1,1.2-1.2,2.9-0.5,4.3 0.7,1.4 2.1,2.3 3.7,2.3l29.4,.2-7.9,45.6c-0.4,1.9 0.6,3.8 2.4,4.5zm-15.5-58.4l30-37.8-5.6,29.5c-0.2,1.2 0.1,2.4 0.9,3.4 0.8,0.9 1.9,1.5 3.1,1.5l23.7,.1-27.9,40.4 5.5-32.2c0.2-1.2-0.1-2.4-0.9-3.3-0.7-0.9-1.8-1.4-3-1.4l-25.8-.2z"
       id="path2"
       style="fill:url(#linearGradient828);fill-opacity:1" />
  </g>
</svg>
