<?xml version="1.0" encoding="iso-8859-1"?>
<!-- Generator: Adobe Illustrator 19.0.0, SVG Export Plug-In . SVG Version: 6.00 Build 0)  -->
<svg version="1.1" id="Layer_1" xmlns="http://www.w3.org/2000/svg" xmlns:xlink="http://www.w3.org/1999/xlink" x="0px" y="0px"
	 viewBox="0 0 512.003 512.003" style="enable-background:new 0 0 512.003 512.003;" xml:space="preserve">
<circle style="fill:#FFDB79;" cx="256" cy="256.002" r="256"/>
<g>
	<path style="fill:#353F49;" d="M381.912,327.744c0,62.543-50.668,113.208-113.208,113.208
		c-62.497,0-113.169-50.668-113.169-113.208c0-62.494,50.671-113.165,113.169-113.165
		C331.244,214.579,381.912,265.251,381.912,327.744z"/>
	<path style="fill:#353F49;" d="M356.468,327.744c0,62.543-50.675,113.208-113.175,113.208
		c-62.533,0-113.205-50.668-113.205-113.208c0-62.494,50.671-113.165,113.205-113.165
		C305.793,214.579,356.468,265.251,356.468,327.744z"/>
</g>
<path style="fill:#474F59;" d="M362.975,323.88c0,74.788-43.712,139.36-106.972,169.594
	c-63.267-30.231-106.975-94.806-106.975-169.594c0-59.035,47.887-106.935,106.975-106.935
	C315.088,216.944,362.975,264.844,362.975,323.88z"/>
<path style="fill:#FFFFFF;" d="M334.161,360.301c0,54.649-31.939,101.852-78.158,123.917
	c-46.219-22.066-78.158-69.269-78.158-123.917c0-43.176,34.988-78.154,78.158-78.154
	C299.17,282.147,334.161,317.125,334.161,360.301z"/>
<path style="fill:#353F49;" d="M256.003,190.552c0,32.659-26.489,59.098-59.131,59.098c-32.633,0-59.111-26.439-59.111-59.098
	c0-32.669,26.479-59.148,59.111-59.148C229.515,131.401,256.003,157.883,256.003,190.552z"/>
<path style="fill:#FFFFFF;" d="M256.003,190.552c0,28.031-22.739,50.81-50.81,50.81c-28.038,0-50.807-22.779-50.807-50.81
	c0-28.091,22.769-50.817,50.807-50.817C233.264,139.735,256.003,162.461,256.003,190.552z"/>
<path style="fill:#353F49;" d="M374.246,190.552c0,32.659-26.475,59.098-59.118,59.098s-59.121-26.439-59.121-59.098
	c0-32.669,26.482-59.148,59.121-59.148C347.77,131.401,374.246,157.883,374.246,190.552z"/>
<path style="fill:#FFFFFF;" d="M357.62,190.552c0,28.031-22.776,50.81-50.807,50.81c-28.074,0-50.81-22.779-50.81-50.81
	c0-28.091,22.736-50.817,50.81-50.817C334.845,139.735,357.62,162.461,357.62,190.552z"/>
<path style="fill:#FDCA5C;" d="M240.366,180.711c0,15.492-12.559,28.061-28.048,28.061c-15.456,0-28.011-12.569-28.011-28.061
	c0-15.446,12.559-28.015,28.011-28.015C227.807,152.697,240.366,165.265,240.366,180.711z"/>
<circle style="fill:#353F49;" cx="212.298" cy="180.711" r="12.965"/>
<g>
	<path style="fill:#FFFFFF;" d="M209.705,172.486c0,3.098-2.52,5.619-5.629,5.619c-3.085,0-5.599-2.524-5.599-5.619
		c0-3.089,2.517-5.606,5.599-5.606C207.188,166.881,209.705,169.398,209.705,172.486z"/>
	<path style="fill:#FFFFFF;" d="M206.934,183.701c0,0.971-0.77,1.741-1.741,1.741c-0.968,0-1.734-0.77-1.734-1.741
		c0-0.978,0.766-1.737,1.734-1.737C206.164,181.963,206.934,182.723,206.934,183.701z"/>
</g>
<path style="fill:#FDCA5C;" d="M271.641,180.711c0,15.492,12.552,28.061,28.054,28.061c15.452,0,27.998-12.569,27.998-28.061
	c0-15.446-12.546-28.015-27.998-28.015C284.193,152.697,271.641,165.265,271.641,180.711z"/>
<path style="fill:#353F49;" d="M286.72,180.711c0,7.158,5.827,12.965,12.978,12.965c7.155,0,12.962-5.807,12.962-12.965
	s-5.807-12.962-12.962-12.962C292.544,167.749,286.72,173.553,286.72,180.711z"/>
<g>
	<path style="fill:#FFFFFF;" d="M302.291,172.486c0,3.098,2.524,5.619,5.635,5.619c3.085,0,5.599-2.524,5.599-5.619
		c0-3.089-2.517-5.606-5.599-5.606C304.812,166.881,302.291,169.398,302.291,172.486z"/>
	<path style="fill:#FFFFFF;" d="M305.069,183.701c0,0.971,0.766,1.741,1.741,1.741c0.968,0,1.737-0.77,1.737-1.741
		c0-0.978-0.77-1.737-1.737-1.737C305.839,181.963,305.069,182.723,305.069,183.701z"/>
</g>
<g>
	<path style="fill:#353F49;" d="M352.421,128.015c3.389-19.714,11.353-37.898,22.779-53.311
		c-69.662,26.452-119.22,93.894-119.22,172.871C255.98,188.897,297.297,139.906,352.421,128.015z"/>
	<path style="fill:#353F49;" d="M159.582,128.015c-3.382-19.714-11.35-37.898-22.779-53.311
		c69.665,26.452,119.223,93.894,119.223,172.871C256.023,188.897,214.703,139.906,159.582,128.015z"/>
</g>
<path style="fill:#F2F2F2;" d="M321.833,106.078c-39.678,33.392-65.1,83.182-65.846,138.94
	c-0.737-55.758-26.152-105.525-65.82-138.924c21.26,4.284,43.262,6.537,65.797,6.537
	C278.531,112.635,300.561,110.379,321.833,106.078z"/>
<path style="fill:#FDCA5C;" d="M269.322,227.961c-1.166-1.443-2.292-2.966-3.353-4.529c-6.322-9.391-9.982-20.728-9.982-32.88
	c0,12.136-3.65,23.46-9.966,32.841c-1.041,1.569-2.17,3.092-3.346,4.535c8.212,16.017,12.988,34.119,13.325,53.284
	c-0.007,0.347-0.007,0.638-0.007,0.935c0-0.205,0.007-0.466,0.017-0.657c0,0.195,0.007,0.456,0.007,0.657
	c0-0.297,0-0.588-0.007-0.935C256.347,262.056,261.117,243.968,269.322,227.961z"/>
<polygon style="fill:#353F49;" points="313.8,69.432 198.207,69.432 198.207,107.657 256.003,135.665 313.8,107.657 "/>
<rect x="125.886" y="60.751" style="fill:#474F59;" width="130.114" height="8.681"/>
<rect x="256" y="60.751" style="fill:#232E38;" width="130.114" height="8.681"/>
<g>
	<rect x="379.342" y="69.435" style="fill:#353F49;" width="3.221" height="43.821"/>
	<polygon style="fill:#353F49;" points="385.156,142.265 382.55,113.249 379.329,113.249 376.72,142.265 378.13,139.385 
		379.521,142.265 380.921,139.385 382.338,142.265 383.752,139.385 	"/>
</g>
<path style="fill:#232E38;" d="M385.268,113.249c0,2.398-1.929,4.347-4.347,4.347c-2.378,0-4.337-1.952-4.337-4.347
	c0-2.401,1.959-4.331,4.337-4.331C383.339,108.922,385.268,110.851,385.268,113.249z"/>
<g>
	<path style="fill:#474F59;" d="M386.507,129.432c4.113,0,8.139,0.195,12.139,0.512c-11.178-4.76-23.192-7.343-35.708-7.343
		c-47.864,0-88.388,37.888-101.898,90.059C278.465,164.344,328.07,129.432,386.507,129.432z"/>
	<path style="fill:#474F59;" d="M125.49,129.432c-4.106,0-8.136,0.195-12.133,0.512c11.172-4.76,23.179-7.343,35.708-7.343
		c47.86,0,88.388,37.888,101.898,90.059C233.541,164.344,183.93,129.432,125.49,129.432z"/>
</g>
<polygon style="fill:#F2F2F2;" points="54.358,458.4 0,441.838 54.358,425.275 "/>
<polygon style="fill:#CCCBCA;" points="0,441.838 54.358,458.4 54.358,448.008 "/>
<rect x="54.358" y="425.292" style="fill:#F77B55;" width="403.291" height="33.131"/>
<rect x="54.358" y="448.018" style="fill:#EE643C;" width="403.291" height="10.392"/>
<polygon style="fill:#353F49;" points="21.276,448.286 0,441.838 21.276,435.344 "/>
<polygon style="fill:#232E38;" points="21.276,448.286 0,441.838 21.276,444.246 "/>
<rect x="457.629" y="425.292" style="fill:#F2F2F2;" width="19.182" height="33.131"/>
<rect x="457.629" y="448.018" style="fill:#CCCBCA;" width="19.182" height="10.392"/>
<path style="fill:#474F59;" d="M495.431,458.4c4.261,0,8.466-1.662,11.74-4.885c3.227-3.234,4.829-7.469,4.829-11.68l0,0
	c0-4.241-1.602-8.46-4.829-11.723c-3.27-3.188-7.479-4.839-11.74-4.839h-18.607v33.125h18.607V458.4z"/>
<path style="fill:#232E38;" d="M507.171,430.115c-1.913-1.827-4.146-3.098-6.451-3.891c0.538,1.685,0.869,3.445,0.869,5.219
	c0,4.195-1.592,8.453-4.843,11.68c-3.247,3.277-7.492,4.885-11.713,4.885h-8.205V458.4h18.607c4.261,0,8.466-1.662,11.74-4.885
	c3.227-3.234,4.829-7.469,4.829-11.68C512,437.596,510.398,433.378,507.171,430.115z"/>
<g>
	<path style="fill:#474F59;" d="M193.975,417.642c-3.591,0-6.494,2.93-6.494,6.491c0,6.56,6.494,25.461,6.494,25.461
		s6.454-18.901,6.454-25.461C200.43,420.532,197.53,417.642,193.975,417.642z"/>
	<path style="fill:#474F59;" d="M206.904,417.642c-3.574,0-6.474,2.93-6.474,6.491c0,6.56,6.474,25.461,6.474,25.461
		s6.474-18.901,6.474-25.461C213.378,420.532,210.478,417.642,206.904,417.642z"/>
	<path style="fill:#474F59;" d="M219.853,417.642c-3.577,0-6.474,2.93-6.474,6.491c0,6.56,6.474,25.461,6.474,25.461
		s6.468-18.901,6.468-25.461C226.321,420.532,223.42,417.642,219.853,417.642z"/>
	<path style="fill:#474F59;" d="M292.141,417.642c-3.558,0-6.454,2.93-6.454,6.491c0,6.56,6.454,25.461,6.454,25.461
		s6.484-18.901,6.484-25.461C298.625,420.532,295.728,417.642,292.141,417.642z"/>
	<path style="fill:#474F59;" d="M305.096,417.642c-3.571,0-6.471,2.93-6.471,6.491c0,6.56,6.471,25.461,6.471,25.461
		s6.471-18.901,6.471-25.461C311.567,420.532,308.67,417.642,305.096,417.642z"/>
	<path style="fill:#474F59;" d="M318.025,417.642c-3.541,0-6.458,2.93-6.458,6.491c0,6.56,6.458,25.461,6.458,25.461
		s6.501-18.901,6.501-25.461C324.525,420.532,321.628,417.642,318.025,417.642z"/>
</g>
<g>
</g>
<g>
</g>
<g>
</g>
<g>
</g>
<g>
</g>
<g>
</g>
<g>
</g>
<g>
</g>
<g>
</g>
<g>
</g>
<g>
</g>
<g>
</g>
<g>
</g>
<g>
</g>
<g>
</g>
</svg>
