<?xml version="1.0" encoding="UTF-8" standalone="no"?>
<svg
   xmlns:dc="http://purl.org/dc/elements/1.1/"
   xmlns:cc="http://creativecommons.org/ns#"
   xmlns:rdf="http://www.w3.org/1999/02/22-rdf-syntax-ns#"
   xmlns:svg="http://www.w3.org/2000/svg"
   xmlns="http://www.w3.org/2000/svg"
   xmlns:xlink="http://www.w3.org/1999/xlink"
   xmlns:sodipodi="http://sodipodi.sourceforge.net/DTD/sodipodi-0.dtd"
   xmlns:inkscape="http://www.inkscape.org/namespaces/inkscape"
   version="1.1"
   viewBox="0 0 129 129"
   enable-background="new 0 0 129 129"
   id="svg6"
   sodipodi:docname="shield.svg"
   inkscape:version="0.92.2 2405546, 2018-03-11">
  <metadata
     id="metadata12">
    <rdf:RDF>
      <cc:Work
         rdf:about="">
        <dc:format>image/svg+xml</dc:format>
        <dc:type
           rdf:resource="http://purl.org/dc/dcmitype/StillImage" />
      </cc:Work>
    </rdf:RDF>
  </metadata>
  <defs
     id="defs10">
    <linearGradient
       inkscape:collect="always"
       id="linearGradient826">
      <stop
         style="stop-color:#d09d17;stop-opacity:1;"
         offset="0"
         id="stop822" />
      <stop
         style="stop-color:#ffda79;stop-opacity:1"
         offset="1"
         id="stop824" />
    </linearGradient>
    <linearGradient
       inkscape:collect="always"
       xlink:href="#linearGradient826"
       id="linearGradient828"
       x1="7.6525426"
       y1="6.5593219"
       x2="121.34746"
       y2="121.34746"
       gradientUnits="userSpaceOnUse" />
  </defs>
  <sodipodi:namedview
     pagecolor="#ffffff"
     bordercolor="#666666"
     borderopacity="1"
     objecttolerance="10"
     gridtolerance="10"
     guidetolerance="10"
     inkscape:pageopacity="0"
     inkscape:pageshadow="2"
     inkscape:window-width="1680"
     inkscape:window-height="979"
     id="namedview8"
     showgrid="false"
     inkscape:zoom="1.8294574"
     inkscape:cx="-23.777542"
     inkscape:cy="64.5"
     inkscape:window-x="0"
     inkscape:window-y="29"
     inkscape:window-maximized="1"
     inkscape:current-layer="svg6" />
  <g
     id="g4"
     style="fill:url(#linearGradient828);fill-opacity:1">
    <path
       d="m118.2,33.5c-0.2,0-25.2-0.6-50.7-25.9-0.8-0.8-1.8-1.2-2.9-1.2h-0.4c-1.1,0-2.1,0.4-2.9,1.2-25.3,25.3-50.3,25.9-50.5,25.9-2.2,0-4,1.8-4,4.1v26.4c0,0.5 0.1,1 0.3,1.5 0.7,1.8 18,44.5 56,56.4 0.4,0.1 0.8,0.2 1.2,0.2 0.1,0 0.3,0 0.4,0 0.4,0 0.8-0.1 1.2-0.2 38-11.9 55.3-54.6 56-56.4 0.2-0.5 0.3-1 0.3-1.5v-26.4c0-2.2-1.8-4-4-4.1zm-4.1,29.7c-2.3,5.3-18.4,40.2-49.6,50.6-31.2-10.4-47.3-45.3-49.6-50.7v-21.8c8.4-1.1 28.5-5.7 49.6-25.4 21.1,19.7 41.2,24.3 49.6,25.4v21.9z"
       id="path2"
       style="fill:url(#linearGradient828);fill-opacity:1" />
  </g>
</svg>
