<?xml version="1.0" encoding="UTF-8" standalone="no"?>
<svg
   xmlns:dc="http://purl.org/dc/elements/1.1/"
   xmlns:cc="http://creativecommons.org/ns#"
   xmlns:rdf="http://www.w3.org/1999/02/22-rdf-syntax-ns#"
   xmlns:svg="http://www.w3.org/2000/svg"
   xmlns="http://www.w3.org/2000/svg"
   xmlns:xlink="http://www.w3.org/1999/xlink"
   xmlns:sodipodi="http://sodipodi.sourceforge.net/DTD/sodipodi-0.dtd"
   xmlns:inkscape="http://www.inkscape.org/namespaces/inkscape"
   version="1.1"
   viewBox="0 0 129 129"
   enable-background="new 0 0 129 129"
   id="svg10"
   sodipodi:docname="bell.svg"
   inkscape:version="0.92.2 2405546, 2018-03-11">
  <metadata
     id="metadata16">
    <rdf:RDF>
      <cc:Work
         rdf:about="">
        <dc:format>image/svg+xml</dc:format>
        <dc:type
           rdf:resource="http://purl.org/dc/dcmitype/StillImage" />
      </cc:Work>
    </rdf:RDF>
  </metadata>
  <defs
     id="defs14">
    <linearGradient
       inkscape:collect="always"
       id="linearGradient884">
      <stop
         style="stop-color:#d09d17;stop-opacity:1;"
         offset="0"
         id="stop880" />
      <stop
         style="stop-color:#ffda79;stop-opacity:1"
         offset="1"
         id="stop882" />
    </linearGradient>
    <linearGradient
       inkscape:collect="always"
       xlink:href="#linearGradient884"
       id="linearGradient886"
       x1="21.317797"
       y1="7.6525426"
       x2="108.77542"
       y2="120.80085"
       gradientUnits="userSpaceOnUse" />
  </defs>
  <sodipodi:namedview
     pagecolor="#ffffff"
     bordercolor="#666666"
     borderopacity="1"
     objecttolerance="10"
     gridtolerance="10"
     guidetolerance="10"
     inkscape:pageopacity="0"
     inkscape:pageshadow="2"
     inkscape:window-width="1680"
     inkscape:window-height="979"
     id="namedview12"
     showgrid="false"
     inkscape:snap-global="true"
     inkscape:snap-bbox="false"
     inkscape:snap-text-baseline="false"
     inkscape:zoom="1.8294574"
     inkscape:cx="-23.777542"
     inkscape:cy="60.127119"
     inkscape:window-x="0"
     inkscape:window-y="29"
     inkscape:window-maximized="1"
     inkscape:current-layer="svg10" />
  <g
     id="g8"
     style="fill:url(#linearGradient886);fill-opacity:1;stroke:none;stroke-opacity:1">
    <g
       id="g6"
       style="fill:url(#linearGradient886);fill-opacity:1;stroke:none;stroke-opacity:1">
      <path
         d="m82.2,37.9c0-17.2-14-31.3-31.3-31.3s-31.3,14-31.3,31.3 14,31.3 31.3,31.3 31.3-14.1 31.3-31.3zm-54.3,0c0-12.7 10.3-23 23-23s23,10.3 23,23-10.3,23-23,23-23-10.3-23-23z"
         id="path2"
         style="fill:url(#linearGradient886);fill-opacity:1;stroke:none;stroke-opacity:1" />
      <path
         d="m93.7,49.4c-8.6,0-15.6,7-15.6,15.6 0,6.2 3.6,11.5 8.8,14.1-3.4,8.8-9.9,16-18.3,20.3v-0.5c0-2.3-1.8-4.1-4.1-4.1h-27.2c-2.3,0-4.1,1.8-4.1,4.1v19.4c0,2.3 1.8,4.1 4.1,4.1h27.2c2.3,0 4.1-1.8 4.1-4.1v-9.8c12.5-5.1 22.1-15.2 26.6-27.9 7.9-0.7 14.2-7.4 14.2-15.6-0.1-8.6-7.1-15.6-15.7-15.6zm-33.3,55.7c-0.1,0.4-0.1,0.8 0,1.2v7.9h-18.9v-11.2h18.9v2.1zm33.3-32.7c-4.1,0-7.4-3.3-7.4-7.4s3.3-7.4 7.4-7.4 7.4,3.3 7.4,7.4-3.3,7.4-7.4,7.4z"
         id="path4"
         style="fill:url(#linearGradient886);fill-opacity:1;stroke:none;stroke-opacity:1" />
    </g>
  </g>
</svg>
